Coordinates
version=1
nRows=7
nColumns=40
inDegrees=yes

Units are S.I. units (second, meters, Newtons, ...)
Angles are in degrees.

endheader
time	pelvis_tilt	pelvis_list	pelvis_rotation	pelvis_tx	pelvis_ty	pelvis_tz	hip_flexion_r	hip_adduction_r	hip_rotation_r	knee_angle_r	knee_angle_r_beta	ankle_angle_r	subtalar_angle_r	mtp_angle_r	hip_flexion_l	hip_adduction_l	hip_rotation_l	knee_angle_l	knee_angle_l_beta	ankle_angle_l	subtalar_angle_l	mtp_angle_l	lumbar_extension	lumbar_bending	lumbar_rotation	arm_flex_r	arm_add_r	arm_rot_r	elbow_flex_r	pro_sup_r	wrist_flex_r	wrist_dev_r	arm_flex_l	arm_add_l	arm_rot_l	elbow_flex_l	pro_sup_l	wrist_flex_l	wrist_dev_l
     56.64750000	     -4.21568798	     -3.40391288	     -2.98872970	      0.95384660	      0.92597540	      0.51852677	     19.23876178	      0.99386491	     -8.01387992	     22.19420056	     22.19420056	      8.54621506	     -2.38901106	     -3.56889523	      2.53074999	     -9.11986060	     -8.85003385	     28.62164760	     28.62164760	     17.13347737	     -8.95125723	     -3.23953720	     -7.78029822	      6.92045727	      0.91461258	     -3.36103242	    -14.55552541	    -12.03482140	     26.48655198	     46.19089129	      0.00000000	      0.00000000	     28.10726903	    -15.92050630	    -10.77225738	     74.32946055	     48.11652817	      0.00000000	      0.00000000
     56.66571429	     -4.02569702	     -3.52853412	     -2.47789073	      0.95491244	      0.92697808	      0.52240768	     18.28398821	      1.29953195	     -8.51573793	     21.73526975	     21.73526975	      8.93807008	     -2.24491185	     -3.56558724	      3.67063183	     -9.85083016	     -8.00228382	     31.51952044	     31.51952044	     16.06077480	     -9.70890061	     -3.85579249	     -7.87235203	      6.95964909	      0.93700676	     -2.18696309	    -14.83206940	    -12.03698423	     26.79692511	     46.19245110	      0.00000000	      0.00000000	     26.99400105	    -15.30608940	    -10.41723886	     73.36419266	     48.06448057	      0.00000000	      0.00000000
     56.68392857	     -3.92069792	     -3.65706256	     -1.94717690	      0.95548048	      0.92768056	      0.52617265	     17.47596813	      1.61281322	     -9.03331340	     21.30465629	     21.30465629	      9.27763211	     -2.13571065	     -3.57680923	      5.13450172	    -10.56373140	     -7.00882245	     34.66780476	     34.66780476	     14.69648285	    -10.60316137	     -4.66299910	     -7.87144495	      6.97748611	      0.86371425	     -0.81924089	    -15.07797459	    -11.97173434	     27.02735810	     46.19441916	      0.00000000	      0.00000000	     25.82455144	    -14.74969811	    -10.03768708	     71.77341687	     47.99899275	      0.00000000	      0.00000000
     56.70214286	     -3.80445400	     -3.79096933	     -1.41825216	      0.95565480	      0.92820431	      0.52982808	     16.74952969	      1.94559780	     -9.50616066	     20.99137401	     20.99137401	      9.64707682	     -2.18370756	     -3.62219590	      6.76628539	    -11.22489255	     -5.88772720	     37.97978520	     37.97978520	     12.99957905	    -11.65377988	     -5.46477772	     -7.98511722	      6.99647672	      0.82652867	      0.70710021	    -15.29962800	    -11.84882162	     27.21255542	     46.19533253	      0.00000000	      0.00000000	     24.71190775	    -14.17109947	     -9.62846915	     69.83965507	     47.92595900	      0.00000000	      0.00000000
     56.72035714	     -3.69001964	     -3.79270730	     -0.88987576	      0.95543815	      0.92847796	      0.53332272	     16.20612672	      2.15195281	     -9.72921853	     20.93932954	     20.93932954	      9.97462898	     -2.59274532	     -3.70291501	      8.44422151	    -11.58095913	     -4.54247417	     41.15470753	     41.15470753	     10.36237578	    -13.55560961	     -7.49980059	     -7.92738930	      6.81854991	      0.67430012	      2.69697232	    -15.45726971	    -11.34480907	     26.61464613	     46.21394323	      0.00000000	      0.00000000	     24.23938026	    -13.62523236	     -8.99755308	     65.42099642	     47.79312956	      0.00000000	      0.00000000
     56.73857143	     -3.45234126	     -4.03070409	     -0.33122165	      0.95500318	      0.92856086	      0.53678147	     15.53317906	      2.60199379	    -10.11321023	     20.87163563	     20.87163563	     10.33695085	     -2.86384769	     -3.75700744	     10.24946823	    -12.26978987	     -3.34508756	     44.74745568	     44.74745568	      8.39234093	    -14.48887980	     -7.86438183	     -8.26984202	      6.86130807	      0.90252430	      4.16209335	    -15.72847754	    -11.26933672	     26.98985574	     46.20893370	      0.00000000	      0.00000000	     23.01038138	    -12.80615443	     -8.55702953	     63.96864876	     47.72506381	      0.00000000	      0.00000000
     56.75678571	     -3.38056394	     -4.05748043	      0.24604976	      0.95423576	      0.92820918	      0.54000664	     15.22615766	      2.88390424	    -10.02785935	     21.08226503	     21.08226503	     10.78129618	     -3.87867782	     -3.73139566	     12.24282219	    -12.53138926	     -1.96094593	     48.14043384	     48.14043384	      5.69225528	    -16.11156359	     -8.74843063	     -8.21550535	      6.69518724	      0.84243635	      5.96408650	    -15.87080414	    -10.75230444	     26.75210382	     46.21203926	      0.00000000	      0.00000000	     22.72453533	    -12.14332052	     -7.71791815	     58.76348075	     47.56442785	      0.00000000	      0.00000000
